<?xml version="1.0" standalone="no"?>
<!DOCTYPE svg PUBLIC "-//W3C//DTD SVG 20010904//EN"
 "http://www.w3.org/TR/2001/REC-SVG-20010904/DTD/svg10.dtd">
<svg version="1.0" xmlns="http://www.w3.org/2000/svg"
 width="260.000000pt" height="260.000000pt" viewBox="0 0 260.000000 260.000000"
 preserveAspectRatio="xMidYMid meet">
<metadata>
Created by potrace 1.11, written by Peter Selinger 2001-2013
</metadata>
<g transform="translate(0.000000,260.000000) scale(0.100000,-0.100000)"
fill="#000000" stroke="none">
<path d="M811 2560 c31 -43 53 -90 70 -150 13 -47 53 -93 139 -160 25 -19 54
-43 64 -52 11 -10 24 -18 29 -18 5 0 20 -9 34 -20 54 -43 39 -6 -39 97 -66 86
-92 116 -199 222 -105 106 -134 130 -98 81z"/>
<path d="M923 2503 c102 -97 191 -195 244 -270 20 -29 39 -53 43 -53 9 0 14
66 11 160 -1 34 -4 37 -88 80 -48 24 -127 66 -176 92 -48 26 -90 48 -92 48 -2
0 24 -26 58 -57z"/>
<path d="M1244 2292 c3 -37 1 -86 -3 -109 -7 -38 -4 -52 35 -130 24 -49 51
-121 61 -160 10 -40 20 -73 23 -73 21 2 200 321 200 357 0 17 -217 143 -297
174 -22 8 -22 7 -19 -59z"/>
<path d="M891 2276 c-1 -29 -8 -79 -16 -110 -8 -31 -15 -61 -15 -66 0 -28 133
-132 352 -275 l97 -63 -5 51 c-7 70 -29 149 -65 227 -26 58 -36 68 -82 93 -61
32 -148 96 -211 155 -25 23 -47 42 -49 42 -2 0 -5 -24 -6 -54z"/>
<path d="M1564 2134 c-46 -112 -88 -190 -145 -275 l-64 -94 5 -75 c3 -41 3
-101 0 -132 -3 -32 -3 -58 -1 -58 25 0 284 257 385 382 10 12 30 35 43 49 l24
27 -68 68 c-37 38 -89 87 -116 108 l-47 38 -16 -38z"/>
<path d="M827 2044 c-10 -20 -44 -81 -77 -135 -33 -55 -60 -104 -60 -108 0
-19 138 -143 220 -198 90 -61 333 -173 376 -173 7 0 13 8 12 18 0 9 3 74 7
143 l7 126 -43 35 c-24 20 -96 71 -159 114 -111 76 -138 96 -185 139 -12 11
-35 32 -51 48 l-30 27 -17 -36z"/>
<path d="M1780 1893 c-19 -26 -39 -51 -45 -57 -5 -6 -28 -33 -50 -61 -63 -79
-234 -253 -285 -290 -46 -33 -47 -36 -63 -119 -10 -47 -30 -124 -46 -170 -27
-82 -27 -85 -7 -74 71 38 419 278 490 338 81 69 183 160 199 178 18 20 18 22
-14 84 -35 68 -130 218 -139 218 -3 0 -21 -22 -40 -47z"/>
<path d="M616 1656 c-30 -63 -60 -133 -66 -156 -14 -51 -14 -50 120 -174 52
-48 143 -107 245 -159 86 -44 236 -107 254 -107 10 0 72 164 101 263 l19 68
-22 8 c-265 103 -433 204 -545 325 -23 25 -45 46 -47 46 -3 0 -29 -51 -59
-114z"/>
<path d="M1929 1567 c-162 -154 -355 -303 -611 -472 l-87 -57 -15 -72 c-19
-86 -26 -126 -22 -126 5 0 181 77 254 111 35 16 66 29 69 29 3 0 129 61 280
136 l274 136 -2 62 c-2 51 -9 93 -33 201 -3 16 -37 115 -39 115 -1 0 -32 -29
-68 -63z"/>
<path d="M531 1329 c1 -45 8 -114 16 -153 18 -91 15 -80 41 -157 l23 -66 101
-47 c83 -39 222 -84 307 -101 10 -2 36 -8 57 -14 21 -6 39 -9 40 -8 1 1 4 29
8 62 3 33 10 78 16 100 15 60 14 61 -47 86 -195 81 -356 182 -473 296 -46 46
-86 83 -88 83 -2 0 -2 -37 -1 -81z"/>
<path d="M1930 1158 c-164 -92 -409 -217 -591 -302 l-147 -69 4 -36 c4 -47 33
-162 44 -181 8 -13 39 -5 197 49 225 76 273 94 423 158 110 47 116 51 137 94
18 37 37 99 60 194 10 43 15 165 7 164 -5 0 -65 -32 -134 -71z"/>
<path d="M661 849 c35 -71 94 -161 146 -226 27 -33 48 -46 96 -62 104 -33 169
-49 229 -56 l58 -7 -25 71 c-14 40 -28 92 -32 117 l-6 44 -71 20 c-213 62
-264 81 -419 158 -5 2 6 -24 24 -59z"/>
<path d="M1875 761 c-158 -76 -371 -162 -532 -216 l-82 -27 31 -62 c17 -33 61
-102 99 -152 192 -256 334 -352 412 -280 24 22 25 28 15 56 -10 29 -14 31 -42
26 -89 -18 -132 0 -222 96 -48 52 -49 61 -2 96 9 7 23 18 30 25 8 6 40 37 73
67 69 64 166 173 216 245 45 64 101 165 92 165 -5 -1 -44 -18 -88 -39z"/>
<path d="M890 533 c0 -23 225 -194 310 -235 82 -40 144 -68 151 -68 4 0 -26
51 -68 113 l-75 112 -68 12 c-91 15 -188 41 -222 58 -15 7 -28 11 -28 8z"/>
</g>
</svg>
